
<svg width="512" height="512" viewBox="0 0 512 512" xmlns="http://www.w3.org/2000/svg">
  <defs>
    <linearGradient id="bgGrad" x1="0%" y1="0%" x2="100%" y2="100%">
      <stop offset="0%" stop-color="#0f172a" />
      <stop offset="100%" stop-color="#020617" />
    </linearGradient>
    <linearGradient id="accentGrad" x1="0%" y1="0%" x2="100%" y2="100%">
      <stop offset="0%" stop-color="#3b82f6" />
      <stop offset="100%" stop-color="#1d4ed8" />
    </linearGradient>
    <linearGradient id="glowGrad" x1="0%" y1="0%" x2="100%" y2="100%">
      <stop offset="0%" stop-color="#60a5fa" />
      <stop offset="100%" stop-color="#3b82f6" />
    </linearGradient>
  </defs>

  <!-- Background rounded card -->
  <rect width="512" height="512" rx="112.64" fill="url(#bgGrad)" />
  <rect x="20.48" y="20.48" width="471.04" height="471.04" rx="92.16" fill="none" stroke="#1e293b" stroke-width="10.24" />

  <!-- Circuit traces -->
  <path d="M 102.4 153.6 L 179.2 153.6 L 204.8 204.8" fill="none" stroke="#334155" stroke-width="10.24" stroke-linecap="round" />
  <circle cx="102.4" cy="153.6" r="15.36" fill="#38bdf8" />
  
  <path d="M 409.6 358.4 L 332.8 358.4 L 307.2 307.2" fill="none" stroke="#334155" stroke-width="10.24" stroke-linecap="round" />
  <circle cx="409.6" cy="358.4" r="15.36" fill="#38bdf8" />

  <!-- Central Chip Shield -->
  <rect x="143.36" y="143.36" width="225.28" height="225.28" rx="40.96" fill="url(#accentGrad)" />
  
  <!-- Microchip pins -->
  <!-- Top pins -->
  <rect x="184.32" y="112.64" width="20.48" height="30.72" rx="5.12" fill="#94a3b8" />
  <rect x="245.76" y="112.64" width="20.48" height="30.72" rx="5.12" fill="#94a3b8" />
  <rect x="307.2" y="112.64" width="20.48" height="30.72" rx="5.12" fill="#94a3b8" />
  
  <!-- Bottom pins -->
  <rect x="184.32" y="368.64" width="20.48" height="30.72" rx="5.12" fill="#94a3b8" />
  <rect x="245.76" y="368.64" width="20.48" height="30.72" rx="5.12" fill="#94a3b8" />
  <rect x="307.2" y="368.64" width="20.48" height="30.72" rx="5.12" fill="#94a3b8" />

  <!-- Left pins -->
  <rect x="112.64" y="184.32" width="30.72" height="20.48" rx="5.12" fill="#94a3b8" />
  <rect x="112.64" y="245.76" width="30.72" height="20.48" rx="5.12" fill="#94a3b8" />
  <rect x="112.64" y="307.2" width="30.72" height="20.48" rx="5.12" fill="#94a3b8" />

  <!-- Right pins -->
  <rect x="368.64" y="184.32" width="30.72" height="20.48" rx="5.12" fill="#94a3b8" />
  <rect x="368.64" y="245.76" width="30.72" height="20.48" rx="5.12" fill="#94a3b8" />
  <rect x="368.64" y="307.2" width="30.72" height="20.48" rx="5.12" fill="#94a3b8" />

  <!-- Lightning / Wrench Core Emblem in Chip -->
  <path d="M 266.24 174.08 L 204.8 256 L 245.76 256 L 235.52 337.92 L 307.2 245.76 L 266.24 245.76 Z" fill="#ffffff" />
</svg>
